<?xml version="1.0" encoding="UTF-8"?>
<!DOCTYPE svg PUBLIC "-//W3C//DTD SVG 1.1//EN" "http://www.w3.org/Graphics/SVG/1.1/DTD/svg11.dtd">
<!-- Creator: CorelDRAW 2021 (64-Bit) -->
<svg xmlns="http://www.w3.org/2000/svg" xml:space="preserve" width="0.472461in" height="0.408197in" version="1.1" style="shape-rendering:geometricPrecision; text-rendering:geometricPrecision; image-rendering:optimizeQuality; fill-rule:evenodd; clip-rule:evenodd"
viewBox="0 0 36 31.11"
 xmlns:xlink="http://www.w3.org/1999/xlink"
 xmlns:xodm="http://www.corel.com/coreldraw/odm/2003">
 <defs>
  <style type="text/css">
   <![CDATA[
    .fil0 {fill:#F4640E;fill-rule:nonzero}
    .fil2 {fill:white;fill-rule:nonzero}
    .fil1 {fill:white;fill-rule:nonzero;fill-opacity:0.200000}
   ]]>
  </style>
 </defs>
 <g id="Layer_x0020_1">
  <metadata id="CorelCorpID_0Corel-Layer"/>
  <g id="_2491965062096">
   <g>
    <path class="fil0" d="M31.1 15.55c0,2.44 -0.56,4.75 -1.56,6.8 -2.52,5.18 -7.84,8.75 -13.99,8.75 -8.59,0 -15.55,-6.96 -15.55,-15.55 0,-5.07 2.42,-9.57 6.17,-12.41 1.24,-0.94 2.62,-1.7 4.11,-2.23 1.64,-0.59 3.42,-0.92 5.27,-0.92 8.08,0 14.72,6.17 15.48,14.05 0.05,0.49 0.07,0.99 0.07,1.5z"/>
   </g>
   <path class="fil1" d="M31.1 15.55c0,2.44 -0.56,4.75 -1.56,6.8 -2.61,1.97 -5.86,3.15 -9.38,3.15 -8.59,0 -15.55,-6.96 -15.55,-15.55 0,-2.44 0.56,-4.75 1.56,-6.8 1.24,-0.94 2.62,-1.7 4.11,-2.23 1.64,-0.59 3.42,-0.92 5.27,-0.92 8.08,0 14.72,6.17 15.48,14.05 0.05,0.49 0.07,0.99 0.07,1.5z"/>
   <g>
    <polygon class="fil0" points="24.63,8.45 24.63,9.95 23.89,8.34 "/>
   </g>
   <g>
    <path class="fil0" d="M0.95 26.18c7.29,0.55 19.15,-0.22 29.04,-8.69l1.75 3.44 4.27 -9.06 -9.35 -1.44 1.83 3.99c0,0 -8.89,10.47 -27.51,10.97 -0.51,0.01 -0.52,0.76 -0.02,0.8z"/>
   </g>
   <g>
    <g>
     <path class="fil2" d="M10.9 13.72l0 8.65c-1.56,0.4 -3.24,0.74 -5.03,0.98l0 -9.63c0,-0.58 0.47,-1.04 1.04,-1.04l2.95 0c0.58,0 1.04,0.47 1.04,1.04z"/>
     <path class="fil2" d="M17.77 9.7l0 10.22c-1.5,0.7 -3.17,1.36 -5.03,1.93l0 -12.16c0,-0.58 0.47,-1.04 1.04,-1.04l2.95 0c0.58,0 1.04,0.47 1.04,1.04z"/>
     <path class="fil2" d="M24.63 6.07l0 9.66c-1.23,0.98 -2.91,2.14 -5.03,3.28l0 -12.94c0,-0.57 0.47,-1.04 1.04,-1.04l2.95 0c0.57,0 1.04,0.47 1.04,1.04z"/>
    </g>
   </g>
  </g>
 </g>
</svg>
