<?xml version="1.0" encoding="UTF-8"?>
<!DOCTYPE svg PUBLIC "-//W3C//DTD SVG 1.1//EN" "http://www.w3.org/Graphics/SVG/1.1/DTD/svg11.dtd">
<!-- Creator: CorelDRAW 2021 (64-Bit) -->
<svg xmlns="http://www.w3.org/2000/svg" xml:space="preserve" width="191px" height="165px" version="1.1" style="shape-rendering:geometricPrecision; text-rendering:geometricPrecision; image-rendering:optimizeQuality; fill-rule:evenodd; clip-rule:evenodd"
viewBox="0 0 56.84 49.23"
 xmlns:xlink="http://www.w3.org/1999/xlink"
 xmlns:xodm="http://www.corel.com/coreldraw/odm/2003">
 <defs>
  <style type="text/css">
   <![CDATA[
    .fil0 {fill:#4886FF}
    .fil1 {fill:#F95476}
    .fil2 {fill:#373435;fill-rule:nonzero}
   ]]>
  </style>
 </defs>
 <g id="Layer_x0020_1">
  <metadata id="CorelCorpID_0Corel-Layer"/>
  <g id="_2211341552944">
   <path class="fil0" d="M32.24 11.82l-5.23 5.23 -3.54 -3.55 -4.94 4.94 -1.47 1.47 -1.38 1.38c-0.74,-1.69 -1.14,-3.55 -1.14,-5.51 0,-7.67 6.21,-13.89 13.88,-13.89 1.29,0 2.54,0.18 3.72,0.5l-1.46 1.51 0.05 0.01c-0.75,-0.15 -1.52,-0.22 -2.31,-0.22 -6.67,0 -12.09,5.41 -12.09,12.09 0,0.77 0.08,1.53 0.22,2.27l1.64 -1.7c-0.01,-0.19 -0.01,-0.38 -0.01,-0.57 0,-5.66 4.58,-10.25 10.24,-10.25 0.98,0 1.92,0.14 2.81,0.39l2.78 -2.86 1.39 -1.44c-2.1,-1.04 -4.47,-1.62 -6.98,-1.62 -8.71,0 -15.77,7.06 -15.77,15.78 0,3.19 0.95,6.17 2.58,8.65l1.37 -1.37 1.31 -1.31 1.36 -1.36 4.33 -4.33 3.6 3.59 6.25 -6.58 1.26 1.24 1.38 -5.12 -5.17 1.37 1.32 1.26z"/>
   <path class="fil1" d="M42.31 15.78c0,5.87 -3.65,10.89 -8.8,12.92l0 -13.66 -4.24 4.29 0 10.3c-0.28,0.02 -0.56,0.03 -0.85,0.03 -0.02,0 -0.04,0 -0.07,0l0 -9.42 -1.3 1.39 -2.94 -2.93 0 10.28c-0.32,-0.11 -0.63,-0.22 -0.94,-0.35l0 -10.15 -4.15 4.04 0 3.48c-0.46,-0.43 -0.9,-0.9 -1.31,-1.38l-1.34 1.34c2.9,3.42 7.22,5.59 12.05,5.59 8.72,0 15.78,-7.06 15.78,-15.77 0,-1.9 -0.33,-3.71 -0.95,-5.4l-1.5 1.5c0.36,1.24 0.56,2.55 0.56,3.9z"/>
  </g>
  <g id="_2211341552176">
   <path class="fil2" d="M4.75 40.37c0,0.5 -0.06,0.9 -0.17,1.21 -0.17,0.47 -0.45,0.83 -0.83,1.09 -0.38,0.24 -0.82,0.36 -1.33,0.36 -0.83,0 -1.47,-0.28 -1.92,-0.85 -0.33,-0.43 -0.5,-0.94 -0.5,-1.53 0,-0.66 0.2,-1.22 0.59,-1.67 0.45,-0.51 1.07,-0.76 1.87,-0.76 0.54,0 0.99,0.14 1.36,0.41 0.27,0.19 0.49,0.48 0.68,0.86l-1.11 0.46c-0.1,-0.21 -0.21,-0.37 -0.34,-0.47 -0.18,-0.15 -0.39,-0.22 -0.64,-0.22 -0.52,0 -0.87,0.26 -1.07,0.79 -0.08,0.19 -0.12,0.39 -0.12,0.6 0,0.43 0.14,0.78 0.41,1.07 0.2,0.21 0.47,0.32 0.81,0.32 0.3,0 0.54,-0.09 0.71,-0.26 0.12,-0.12 0.19,-0.28 0.23,-0.51l-0.97 0 0 -0.9 2.34 0z"/>
   <path id="_1" class="fil2" d="M9.25 42.89l-1.46 0 -1.12 -1.73 0 1.73 -1.18 0 0 -4.54 1.83 0c0.54,0 0.93,0.17 1.19,0.49 0.21,0.26 0.31,0.56 0.31,0.91 0,0.4 -0.12,0.72 -0.35,0.96 -0.16,0.16 -0.37,0.26 -0.64,0.32l1.42 1.86zm-1.65 -3.07c0,-0.16 -0.06,-0.3 -0.18,-0.41 -0.11,-0.11 -0.29,-0.16 -0.53,-0.16l-0.22 0 0 1.14 0.22 0c0.25,0 0.43,-0.05 0.53,-0.16 0.12,-0.11 0.18,-0.25 0.18,-0.41z"/>
   <path id="_2" class="fil2" d="M14.57 40.64c0,0.61 -0.21,1.15 -0.62,1.62 -0.46,0.53 -1.09,0.79 -1.89,0.79 -0.8,0 -1.43,-0.26 -1.89,-0.79 -0.41,-0.47 -0.62,-1.01 -0.62,-1.62 0,-0.28 0.06,-0.57 0.17,-0.87 0.11,-0.29 0.26,-0.55 0.44,-0.76 0.47,-0.53 1.1,-0.79 1.9,-0.79 0.8,0 1.43,0.26 1.89,0.79 0.41,0.47 0.62,1.01 0.62,1.63zm-1.23 0c0,-0.32 -0.1,-0.6 -0.3,-0.83 -0.26,-0.3 -0.59,-0.45 -0.98,-0.45 -0.27,0 -0.52,0.08 -0.74,0.23 -0.22,0.15 -0.37,0.35 -0.47,0.61 -0.05,0.14 -0.08,0.29 -0.08,0.44 0,0.3 0.11,0.58 0.31,0.82 0.25,0.3 0.58,0.45 0.98,0.45 0.4,0 0.72,-0.15 0.98,-0.45 0.2,-0.23 0.3,-0.51 0.3,-0.82z"/>
   <polygon id="_3" class="fil2" points="21.73,38.35 20.28,42.89 19.08,42.89 18.26,40.26 17.39,42.89 16.19,42.89 14.84,38.35 16.07,38.35 16.86,41.29 17.82,38.35 18.75,38.35 19.65,41.29 20.5,38.35 "/>
   <polygon id="_4" class="fil2" points="24.89,39.33 23.91,39.33 23.91,42.89 22.74,42.89 22.74,39.33 21.78,39.33 21.78,38.35 24.89,38.35 "/>
   <polygon id="_5" class="fil2" points="29.47,42.89 28.29,42.89 28.29,41.01 26.59,41.01 26.59,42.89 25.41,42.89 25.41,38.35 26.59,38.35 26.59,40.11 28.29,40.11 28.29,38.35 29.47,38.35 "/>
   <polygon id="_6" class="fil2" points="37.77,42.89 36.6,42.89 36.26,40.28 35.17,42.89 34.7,42.89 33.66,40.28 33.27,42.89 32.1,42.89 32.87,38.35 34.04,38.35 34.95,40.78 35.92,38.35 37.09,38.35 "/>
   <path id="_7" class="fil2" d="M43.34 40.64c0,0.61 -0.21,1.15 -0.61,1.62 -0.47,0.53 -1.1,0.79 -1.9,0.79 -0.8,0 -1.43,-0.26 -1.89,-0.79 -0.41,-0.47 -0.62,-1.01 -0.62,-1.62 0,-0.28 0.06,-0.57 0.17,-0.87 0.11,-0.29 0.26,-0.55 0.44,-0.76 0.47,-0.53 1.1,-0.79 1.9,-0.79 0.8,0 1.43,0.26 1.9,0.79 0.4,0.47 0.61,1.01 0.61,1.63zm-1.22 0c0,-0.32 -0.11,-0.6 -0.31,-0.83 -0.26,-0.3 -0.59,-0.45 -0.98,-0.45 -0.27,0 -0.52,0.08 -0.74,0.23 -0.21,0.15 -0.37,0.35 -0.46,0.61 -0.06,0.14 -0.08,0.29 -0.08,0.44 0,0.3 0.1,0.58 0.3,0.82 0.25,0.3 0.58,0.45 0.98,0.45 0.4,0 0.72,-0.15 0.98,-0.45 0.2,-0.23 0.31,-0.51 0.31,-0.82z"/>
   <polygon id="_8" class="fil2" points="48.61,42.89 47.43,42.89 45.26,40.11 45.26,42.89 44.09,42.89 44.09,38.35 45.26,38.35 47.43,41.13 47.43,38.35 48.61,38.35 "/>
   <polygon id="_9" class="fil2" points="52.14,42.89 49.56,42.89 49.56,38.35 52.14,38.35 52.14,39.33 50.74,39.33 50.74,40.12 52.06,40.12 52.06,41.09 50.74,41.09 50.74,41.91 52.14,41.91 "/>
   <polygon id="_10" class="fil2" points="56.84,38.35 55.14,40.71 55.14,42.89 53.97,42.89 53.97,40.71 52.33,38.35 53.74,38.35 54.59,39.6 55.41,38.35 "/>
   <polygon class="fil2" points="1.31,49.12 0.25,49.12 0.25,45.05 1.31,45.05 "/>
   <polygon id="_1_0" class="fil2" points="7.11,49.12 6.05,49.12 4.11,46.63 4.11,49.12 3.05,49.12 3.05,45.05 4.11,45.05 6.05,47.54 6.05,45.05 7.11,45.05 "/>
   <polygon id="_2_1" class="fil2" points="12.69,45.05 10.96,49.12 10.14,49.12 8.42,45.05 9.58,45.05 10.56,47.52 11.55,45.05 "/>
   <polygon id="_3_2" class="fil2" points="16.32,49.12 14.01,49.12 14.01,45.05 16.32,45.05 16.32,45.93 15.06,45.93 15.06,46.63 16.26,46.63 16.26,47.51 15.06,47.51 15.06,48.24 16.32,48.24 "/>
   <path id="_4_3" class="fil2" d="M20.7 47.77c0,0.69 -0.3,1.14 -0.91,1.35 -0.21,0.08 -0.43,0.11 -0.68,0.11 -0.51,0 -0.98,-0.15 -1.41,-0.46l0.45 -0.85c0.32,0.29 0.63,0.43 0.93,0.43 0.14,0 0.26,-0.03 0.35,-0.09 0.11,-0.08 0.17,-0.18 0.17,-0.31 0,-0.12 -0.06,-0.23 -0.19,-0.31 -0.09,-0.06 -0.24,-0.12 -0.46,-0.18 -0.26,-0.08 -0.43,-0.13 -0.49,-0.16 -0.11,-0.05 -0.2,-0.1 -0.28,-0.16 -0.22,-0.18 -0.32,-0.45 -0.32,-0.81 0,-0.38 0.11,-0.69 0.33,-0.94 0.27,-0.29 0.62,-0.44 1.05,-0.44 0.44,0 0.87,0.11 1.29,0.33l-0.42 0.82c-0.23,-0.18 -0.46,-0.27 -0.7,-0.27 -0.11,0 -0.21,0.03 -0.3,0.09 -0.1,0.06 -0.15,0.15 -0.15,0.26 0,0.11 0.06,0.2 0.2,0.28 0.06,0.04 0.23,0.1 0.53,0.19 0.38,0.11 0.64,0.26 0.8,0.46 0.14,0.18 0.21,0.4 0.21,0.66z"/>
   <polygon id="_5_4" class="fil2" points="24.67,45.93 23.79,45.93 23.79,49.12 22.73,49.12 22.73,45.93 21.87,45.93 21.87,45.05 24.67,45.05 "/>
   <polygon id="_6_5" class="fil2" points="28.33,49.12 26.02,49.12 26.02,45.05 28.33,45.05 28.33,45.93 27.08,45.93 27.08,46.63 28.27,46.63 28.27,47.51 27.08,47.51 27.08,48.24 28.33,48.24 "/>
   <path id="_7_6" class="fil2" d="M32.71 47.77c0,0.69 -0.3,1.14 -0.91,1.35 -0.21,0.08 -0.43,0.11 -0.68,0.11 -0.5,0 -0.98,-0.15 -1.41,-0.46l0.45 -0.85c0.32,0.29 0.63,0.43 0.93,0.43 0.14,0 0.26,-0.03 0.35,-0.09 0.11,-0.08 0.17,-0.18 0.17,-0.31 0,-0.12 -0.06,-0.23 -0.19,-0.31 -0.09,-0.06 -0.24,-0.12 -0.46,-0.18 -0.26,-0.08 -0.43,-0.13 -0.49,-0.16 -0.11,-0.05 -0.2,-0.1 -0.28,-0.16 -0.21,-0.18 -0.32,-0.45 -0.32,-0.81 0,-0.38 0.11,-0.69 0.34,-0.94 0.26,-0.29 0.61,-0.44 1.04,-0.44 0.44,0 0.87,0.11 1.29,0.33l-0.42 0.82c-0.23,-0.18 -0.46,-0.27 -0.7,-0.27 -0.11,0 -0.21,0.03 -0.3,0.09 -0.1,0.06 -0.15,0.15 -0.15,0.26 0,0.11 0.06,0.2 0.2,0.28 0.06,0.04 0.24,0.1 0.53,0.19 0.38,0.11 0.64,0.26 0.8,0.46 0.14,0.18 0.21,0.4 0.21,0.66z"/>
   <polygon id="_8_7" class="fil2" points="36.68,45.93 35.8,45.93 35.8,49.12 34.74,49.12 34.74,45.93 33.88,45.93 33.88,45.05 36.68,45.05 "/>
   <polygon id="_9_8" class="fil2" points="42.95,49.12 41.89,49.12 41.59,46.78 40.61,49.12 40.19,49.12 39.25,46.78 38.9,49.12 37.85,49.12 38.54,45.05 39.59,45.05 40.41,47.22 41.28,45.05 42.34,45.05 "/>
   <polygon id="_10_9" class="fil2" points="46.82,49.12 44.51,49.12 44.51,45.05 46.82,45.05 46.82,45.93 45.56,45.93 45.56,46.63 46.76,46.63 46.76,47.51 45.56,47.51 45.56,48.24 46.82,48.24 "/>
   <polygon id="_11" class="fil2" points="52.44,49.12 51.39,49.12 49.44,46.63 49.44,49.12 48.38,49.12 48.38,45.05 49.44,45.05 51.39,47.54 51.39,45.05 52.44,45.05 "/>
   <polygon id="_12" class="fil2" points="56.6,45.93 55.72,45.93 55.72,49.12 54.66,49.12 54.66,45.93 53.8,45.93 53.8,45.05 56.6,45.05 "/>
  </g>
 </g>
</svg>
