<?xml version="1.0" encoding="UTF-8"?>
<!DOCTYPE svg PUBLIC "-//W3C//DTD SVG 1.1//EN" "http://www.w3.org/Graphics/SVG/1.1/DTD/svg11.dtd">
<!-- Creator: CorelDRAW 2021 (64-Bit) -->
<svg xmlns="http://www.w3.org/2000/svg" xml:space="preserve" width="191px" height="165px" version="1.1" style="shape-rendering:geometricPrecision; text-rendering:geometricPrecision; image-rendering:optimizeQuality; fill-rule:evenodd; clip-rule:evenodd"
viewBox="0 0 140.07 121.31"
 xmlns:xlink="http://www.w3.org/1999/xlink"
 xmlns:xodm="http://www.corel.com/coreldraw/odm/2003">
 <defs>
  <style type="text/css">
   <![CDATA[
    .fil0 {fill:#FEFEFE}
    .fil1 {fill:#FEFEFE;fill-rule:nonzero}
   ]]>
  </style>
 </defs>
 <g id="Layer_x0020_1">
  <metadata id="CorelCorpID_0Corel-Layer"/>
  <g id="_2211341544688">
   <path class="fil0" d="M79.45 29.13l-12.88 12.88 -8.75 -8.74 -12.17 12.17 -3.62 3.62 -3.4 3.4c-1.81,-4.16 -2.81,-8.76 -2.81,-13.59 0,-18.89 15.32,-34.21 34.22,-34.21 3.17,0 6.24,0.43 9.16,1.24l-3.59 3.7 0.12 0.03c-1.85,-0.36 -3.75,-0.55 -5.69,-0.55 -16.46,0 -29.79,13.34 -29.79,29.79 0,1.92 0.18,3.79 0.52,5.6l4.06 -4.18c-0.03,-0.47 -0.04,-0.94 -0.04,-1.42 0,-13.94 11.3,-25.24 25.25,-25.24 2.4,0 4.72,0.33 6.92,0.96l6.84 -7.05 3.43 -3.54c-5.18,-2.56 -11.02,-4 -17.19,-4 -21.47,0 -38.88,17.4 -38.88,38.87 0,7.88 2.35,15.21 6.37,21.33l3.38 -3.37 3.22 -3.23 3.36 -3.36 10.67 -10.67 8.86 8.86 15.4 -16.22 3.11 3.04 3.4 -12.6 -12.75 3.38 3.27 3.1z"/>
   <path class="fil0" d="M104.25 38.87c0,14.47 -8.98,26.84 -21.67,31.84l0 -33.66 -10.46 10.57 0 25.4c-0.69,0.04 -1.38,0.07 -2.08,0.07 -0.06,0 -0.12,0 -0.17,0l0 -23.21 -3.21 3.43 -7.25 -7.22 0 25.31c-0.78,-0.25 -1.55,-0.53 -2.31,-0.84l0 -25.03 -10.22 9.95 0 8.58c-1.15,-1.06 -2.23,-2.2 -3.23,-3.41l-3.31 3.31c7.13,8.43 17.79,13.79 29.7,13.79 21.47,0 38.87,-17.41 38.87,-38.88 0,-4.66 -0.82,-9.14 -2.33,-13.28l-3.69 3.69c0.88,3.05 1.36,6.27 1.36,9.59z"/>
  </g>
  <g id="_2211341547328">
   <path class="fil1" d="M11.69 99.49c0,1.21 -0.13,2.2 -0.4,2.96 -0.42,1.16 -1.1,2.06 -2.06,2.68 -0.92,0.6 -2.01,0.91 -3.27,0.91 -2.05,0 -3.62,-0.7 -4.72,-2.1 -0.83,-1.05 -1.24,-2.32 -1.24,-3.78 0,-1.63 0.49,-2.99 1.45,-4.1 1.11,-1.26 2.64,-1.89 4.61,-1.89 1.32,0 2.44,0.34 3.35,1.02 0.66,0.48 1.22,1.18 1.68,2.12l-2.75 1.12c-0.23,-0.51 -0.51,-0.89 -0.82,-1.15 -0.44,-0.36 -0.98,-0.54 -1.59,-0.54 -1.26,0 -2.14,0.65 -2.64,1.94 -0.18,0.48 -0.27,0.97 -0.27,1.48 0,1.06 0.33,1.94 1,2.64 0.5,0.53 1.16,0.79 1.99,0.79 0.74,0 1.33,-0.22 1.76,-0.64 0.28,-0.28 0.47,-0.7 0.56,-1.25l-2.4 0 0 -2.21 5.76 0z"/>
   <path id="_1" class="fil1" d="M22.8 105.68l-3.6 0 -2.77 -4.27 0 4.27 -2.9 0 0 -11.17 4.52 0c1.32,0 2.29,0.4 2.92,1.19 0.52,0.64 0.77,1.39 0.77,2.25 0,0.99 -0.29,1.78 -0.88,2.37 -0.38,0.38 -0.9,0.64 -1.56,0.79l3.5 4.57zm-4.07 -7.57c0,-0.4 -0.15,-0.73 -0.44,-1 -0.27,-0.26 -0.71,-0.39 -1.32,-0.39l-0.54 0 0 2.8 0.54 0c0.61,0 1.06,-0.13 1.32,-0.39 0.29,-0.28 0.44,-0.62 0.44,-1.02z"/>
   <path id="_2" class="fil1" d="M35.9 100.13c0,1.52 -0.51,2.85 -1.52,4 -1.15,1.3 -2.7,1.96 -4.67,1.96 -1.96,0 -3.51,-0.66 -4.66,-1.96 -1.01,-1.15 -1.52,-2.48 -1.52,-4 0,-0.69 0.14,-1.4 0.41,-2.13 0.28,-0.73 0.64,-1.35 1.1,-1.87 1.15,-1.3 2.71,-1.96 4.67,-1.96 1.97,0 3.52,0.66 4.67,1.96 1.01,1.15 1.52,2.48 1.52,4zm-3.02 0c0,-0.78 -0.25,-1.47 -0.75,-2.04 -0.65,-0.74 -1.45,-1.1 -2.42,-1.1 -0.66,0 -1.27,0.19 -1.81,0.56 -0.54,0.38 -0.92,0.88 -1.15,1.5 -0.14,0.36 -0.2,0.72 -0.2,1.08 0,0.76 0.25,1.44 0.75,2.03 0.63,0.74 1.43,1.11 2.41,1.11 0.99,0 1.79,-0.36 2.42,-1.1 0.5,-0.59 0.75,-1.26 0.75,-2.04z"/>
   <polygon id="_3" class="fil1" points="53.55,94.51 49.98,105.68 47.02,105.68 44.98,99.21 42.85,105.68 39.89,105.68 36.56,94.51 39.6,94.51 41.54,101.73 43.9,94.51 46.21,94.51 48.41,101.73 50.52,94.51 "/>
   <polygon id="_4" class="fil1" points="61.34,96.92 58.92,96.92 58.92,105.68 56.03,105.68 56.03,96.92 53.66,96.92 53.66,94.51 61.34,94.51 "/>
   <polygon id="_5" class="fil1" points="72.61,105.68 69.72,105.68 69.72,101.04 65.51,101.04 65.51,105.68 62.61,105.68 62.61,94.51 65.51,94.51 65.51,98.83 69.72,98.83 69.72,94.51 72.61,94.51 "/>
   <polygon id="_6" class="fil1" points="93.08,105.68 90.18,105.68 89.36,99.25 86.66,105.68 85.51,105.68 82.94,99.25 81.99,105.68 79.09,105.68 80.98,94.51 83.87,94.51 86.12,100.47 88.51,94.51 91.4,94.51 "/>
   <path id="_7" class="fil1" d="M106.79 100.13c0,1.52 -0.5,2.85 -1.51,4 -1.15,1.3 -2.71,1.96 -4.67,1.96 -1.96,0 -3.52,-0.66 -4.67,-1.96 -1.01,-1.15 -1.51,-2.48 -1.51,-4 0,-0.69 0.13,-1.4 0.41,-2.13 0.27,-0.73 0.63,-1.35 1.09,-1.87 1.15,-1.3 2.71,-1.96 4.68,-1.96 1.96,0 3.52,0.66 4.67,1.96 1.01,1.15 1.51,2.48 1.51,4zm-3.01 0c0,-0.78 -0.26,-1.47 -0.76,-2.04 -0.64,-0.74 -1.45,-1.1 -2.41,-1.1 -0.67,0 -1.27,0.19 -1.81,0.56 -0.54,0.38 -0.93,0.88 -1.16,1.5 -0.13,0.36 -0.2,0.72 -0.2,1.08 0,0.76 0.25,1.44 0.76,2.03 0.62,0.74 1.42,1.11 2.41,1.11 0.98,0 1.78,-0.36 2.41,-1.1 0.5,-0.59 0.76,-1.26 0.76,-2.04z"/>
   <polygon id="_8" class="fil1" points="119.77,105.68 116.87,105.68 111.53,98.84 111.53,105.68 108.63,105.68 108.63,94.51 111.53,94.51 116.87,101.35 116.87,94.51 119.77,94.51 "/>
   <polygon id="_9" class="fil1" points="128.47,105.68 122.12,105.68 122.12,94.51 128.47,94.51 128.47,96.92 125.02,96.92 125.02,98.85 128.28,98.85 128.28,101.26 125.02,101.26 125.02,103.27 128.47,103.27 "/>
   <polygon id="_10" class="fil1" points="140.07,94.51 135.88,100.31 135.88,105.68 132.98,105.68 132.98,100.31 128.94,94.51 132.41,94.51 134.52,97.58 136.55,94.51 "/>
   <polygon class="fil1" points="3.22,121.04 0.61,121.04 0.61,111 3.22,111 "/>
   <polygon id="_1_0" class="fil1" points="17.52,121.04 14.92,121.04 10.12,114.89 10.12,121.04 7.51,121.04 7.51,111 10.12,111 14.92,117.14 14.92,111 17.52,111 "/>
   <polygon id="_2_1" class="fil1" points="31.28,111 27,121.04 24.98,121.04 20.76,111 23.6,111 26.01,117.1 28.45,111 "/>
   <polygon id="_3_2" class="fil1" points="40.22,121.04 34.52,121.04 34.52,111 40.22,111 40.22,113.17 37.12,113.17 37.12,114.9 40.06,114.9 40.06,117.07 37.12,117.07 37.12,118.87 40.22,118.87 "/>
   <path id="_4_3" class="fil1" d="M51 117.72c0,1.7 -0.74,2.8 -2.23,3.32 -0.52,0.18 -1.08,0.27 -1.67,0.27 -1.26,0 -2.42,-0.38 -3.49,-1.14l1.11 -2.09c0.79,0.71 1.55,1.06 2.3,1.06 0.34,0 0.63,-0.08 0.86,-0.23 0.27,-0.18 0.41,-0.44 0.41,-0.76 0,-0.3 -0.15,-0.55 -0.45,-0.75 -0.23,-0.15 -0.61,-0.3 -1.14,-0.45 -0.65,-0.19 -1.06,-0.33 -1.22,-0.4 -0.27,-0.11 -0.49,-0.25 -0.68,-0.4 -0.53,-0.44 -0.8,-1.11 -0.8,-2 0,-0.93 0.28,-1.7 0.83,-2.31 0.65,-0.72 1.51,-1.08 2.59,-1.08 1.08,0 2.14,0.27 3.17,0.81l-1.03 2.03c-0.57,-0.45 -1.15,-0.67 -1.73,-0.67 -0.27,0 -0.52,0.07 -0.75,0.21 -0.24,0.17 -0.37,0.38 -0.37,0.66 0,0.26 0.16,0.49 0.49,0.68 0.15,0.09 0.59,0.25 1.32,0.46 0.92,0.28 1.58,0.66 1.97,1.15 0.34,0.43 0.51,0.97 0.51,1.63z"/>
   <polygon id="_5_4" class="fil1" points="60.79,113.17 58.62,113.17 58.62,121.04 56.01,121.04 56.01,113.17 53.89,113.17 53.89,111 60.79,111 "/>
   <polygon id="_6_5" class="fil1" points="69.82,121.04 64.11,121.04 64.11,111 69.82,111 69.82,113.17 66.72,113.17 66.72,114.9 69.65,114.9 69.65,117.07 66.72,117.07 66.72,118.87 69.82,118.87 "/>
   <path id="_7_6" class="fil1" d="M80.6 117.72c0,1.7 -0.75,2.8 -2.23,3.32 -0.52,0.18 -1.08,0.27 -1.68,0.27 -1.25,0 -2.41,-0.38 -3.48,-1.14l1.11 -2.09c0.78,0.71 1.55,1.06 2.3,1.06 0.34,0 0.62,-0.08 0.86,-0.23 0.27,-0.18 0.41,-0.44 0.41,-0.76 0,-0.3 -0.15,-0.55 -0.46,-0.75 -0.22,-0.15 -0.6,-0.3 -1.14,-0.45 -0.64,-0.19 -1.05,-0.33 -1.21,-0.4 -0.27,-0.11 -0.5,-0.25 -0.68,-0.4 -0.54,-0.44 -0.8,-1.11 -0.8,-2 0,-0.93 0.27,-1.7 0.83,-2.31 0.64,-0.72 1.51,-1.08 2.58,-1.08 1.08,0 2.14,0.27 3.18,0.81l-1.04 2.03c-0.57,-0.45 -1.14,-0.67 -1.72,-0.67 -0.28,0 -0.53,0.07 -0.75,0.21 -0.25,0.17 -0.37,0.38 -0.37,0.66 0,0.26 0.16,0.49 0.49,0.68 0.15,0.09 0.59,0.25 1.32,0.46 0.92,0.28 1.58,0.66 1.97,1.15 0.34,0.43 0.51,0.97 0.51,1.63z"/>
   <polygon id="_8_7" class="fil1" points="90.38,113.17 88.22,113.17 88.22,121.04 85.61,121.04 85.61,113.17 83.49,113.17 83.49,111 90.38,111 "/>
   <polygon id="_9_8" class="fil1" points="105.83,121.04 103.22,121.04 102.48,115.26 100.06,121.04 99.03,121.04 96.71,115.26 95.86,121.04 93.26,121.04 94.96,111 97.55,111 99.58,116.36 101.72,111 104.32,111 "/>
   <polygon id="_10_9" class="fil1" points="115.37,121.04 109.67,121.04 109.67,111 115.37,111 115.37,113.17 112.27,113.17 112.27,114.9 115.21,114.9 115.21,117.07 112.27,117.07 112.27,118.87 115.37,118.87 "/>
   <polygon id="_11" class="fil1" points="129.23,121.04 126.62,121.04 121.82,114.89 121.82,121.04 119.22,121.04 119.22,111 121.82,111 126.62,117.14 126.62,111 129.23,111 "/>
   <polygon id="_12" class="fil1" points="139.46,113.17 137.29,113.17 137.29,121.04 134.69,121.04 134.69,113.17 132.57,113.17 132.57,111 139.46,111 "/>
  </g>
 </g>
</svg>
